# xmcd
#
# Track frame offsets: 
#        150
#        29597
#        63645
#        87325
#        114535
#        136072
#        156642
#        172662
#
# Disc length: 2724 seconds
#
# Revision: 8
# Processed by: cddbd v1.5.2PL0 Copyright (c) Steve Scherf et al.
# Submitted via: ExactAudioCopy v1.0b1
#
DISCID=680aa208
DTITLE=Taj Mahal and The Hula Blues Band - Sacred Island
DYEAR=1998
DGENRE=Blues
TTITLE0=The Calypsonians
TTITLE1=Coconut Man
TTITLE2=Sacred Island (Moku La'a)
TTITLE3=Betty And Dupree
TTITLE4=The New Hula Blues
TTITLE5=No Na Mamo
TTITLE6=Mailbox Blues
TTITLE7=Kanikapila
EXTD=ID3G:  16
EXTT0=
EXTT1=
EXTT2=
EXTT3=
EXTT4=
EXTT5=
EXTT6=
EXTT7=
PLAYORDER=
